<?xml version="1.0" encoding="UTF-8"?>
<svg xmlns="http://www.w3.org/2000/svg" width="720" height="900"
     viewBox="0 0 720 900">
  <style>
    .region { fill:#f4f1e6; stroke:#2f2f2f; stroke-width:1.2; vector-effect:non-scaling-stroke; }
    .inner  { fill:none; stroke:#7a7a7a; stroke-width:.8; stroke-dasharray:2 2; vector-effect:non-scaling-stroke; }
    text { font-family: system-ui, sans-serif; font-size:12px; fill:#222; user-select:none; }
  </style>
  <g id="regions">
    <path class="region" d="M382.58,125.723L390.096,125.127L397.669,122.423L404.717,117.857L410.591,111.689L413.146,108.028L415.279,104.118L416.716,99.77L417.195,94.768L416.259,89.941L416.02,87.48L416.716,85.656L419.727,83.267L425.966,80.019L429.262,86.551L434.408,96.748L435.432,101.217L438.054,107.982L447.798,127.28L455.396,147.506L456.635,149.704L460.595,154.612L462.113,158.73L480.505,185.069L487.645,195.473L496.194,204.96L497.407,205.953L503.136,212.701L503.433,215.549L503.459,218.974L504.142,221.877L508.049,224.053L509.18,226.388L512.404,236.899L513.841,239.332L515.565,240.368L517.011,241.867L522.031,251.752L525.049,255.549L526.09,257.64L526.495,259.854L527.258,262L532.583,267.865L534.281,272.672L535.789,283.164L537.864,288.933L543.522,296.826L543.953,298.481L543.306,300.079L542.282,301.603L541.636,303.094L541.591,304.433L542.39,308.756L543.36,321.094L544.384,326.786L548.048,338.401L548.344,344.084L547.195,349.338L544.707,354.108L542.686,359.765L541.581,359.718L537.897,358.872L534.361,360.439L526.72,357.615L527.94,354.342L527.598,351.27L526.628,347.867L526.332,344.012L527.803,340.354L528.989,336.887L528.122,335.861L527.176,334.96L527.621,331.83L519.534,331.225L517.162,329.874L514.63,328.788L513.592,326.251L512.782,323.314L509.144,321.588L506.874,318.151L506.384,313.678L507.182,310.252L509.064,308.824L511.129,308.05L514.345,309.324L516.957,307.368L515.884,304.183L512.44,302.104L508.665,301.222L505.665,302.808L502.78,303.54L498.708,301.668L494.386,300.94L492.926,301.536L491.717,301.386L490.782,300.132L489.436,299.571L486.299,302.018L482.992,303.319L482.741,300.897L483.014,298.492L481.098,297.538L478.966,297.049L477.415,294.322L474.404,294.086L471.404,295.494L469.397,297.946L470.127,301.347L469.773,304.522L469.123,307.475L466.306,307.211L463.01,306.5L460.284,305.354L457.455,303.851L455.243,302.418L453.007,301.447L450.202,301.122L447.327,300.554L444.419,298.667L441.796,296.677L439.161,296.695L436.504,297.545L434.132,297.967L432.124,298.117L431.326,296.298L429.136,294.021L429.33,292.048L428.235,290.84L422.977,291.44L419.624,292.563L418.62,293.035L417.64,293.013L416.077,292.148L414.868,290.782L416.761,287.843L419.943,285.575L421.221,282.659L419.236,282.061L412.941,281.066L406.782,278.868L404.227,280.844L402.048,281.989L399.414,281.435L397.201,283.145L393.552,285.181L389.89,286.068L388.522,284.147L388.522,281.174L384.325,276.724L378.702,278.629L376.615,281.191L377.219,287.921L374.984,289.456L374.242,290.36L373.387,291.108L372.44,290.664L371.505,290.081L368.129,289.845L364.776,290.639L365.723,283.958L353.987,285.564L342.331,288.762L348.318,277.665L353.223,265.6L360.02,251.077L360.864,247.958L360.225,244.833L361.674,242.305L363.715,239.815L365.905,238.906L367.057,236.429L365.803,234.291L364.16,232.885L361.537,232.594L358.845,231.569L355.127,231.069L348.923,227.63L346.128,226.486L343.357,224.662L340.312,224.19L337.358,225.126L334.906,223.053L335.1,220.796L336.263,218.427L336.719,215.683L336.753,212.856L333.834,213.799L332.522,212.099L335.738,208.315L335.202,205.792L334.313,203.286L334.951,201.386L334.917,199.113L334.7,196.963L340.3,192.824L342.57,192.084L343.836,190.134L344.406,184.464L341.794,180.454L339.65,180.016L337.609,179.073L336.069,174.937L333.628,174.814L331.017,174.988L328.165,172.901L326.808,169.197L326.249,162.607L325.188,159.287L324.447,158.646L323.58,158.79L322.999,159.355L322.269,159.46L320.387,158.128L315.779,159.761L311.548,158.733L309.837,157.69L308.092,156.11L308.035,153.465L308.89,150.972L309.518,150.023L309.962,149.113L309.232,148.5L308.297,148.275L307.408,148.464L306.632,149.066L305.172,150.965L303.541,152.621L301.032,153.052L298.819,151.545L298.409,150.175L298.238,148.786L297.439,148.297L296.595,149.189L296.31,150.617L296.287,155.233L294.85,157.487L290.801,155.567L287.095,152.212L285.795,150.842L284.426,151.016L283.206,149.24L282.441,146.927L281.438,145.712L280.24,144.751L279.316,142.546L277.673,141.499L273.785,139.023L271.599,137.95L272.245,137.125L278.295,132.13L285.327,127.717L292.723,124.713L299.84,123.942L303.353,124.317L316.959,123.125L327.424,126.304L330.748,125.999L337.232,124.03L358.52,122.162L359.427,122.779L360.835,124.822L362.193,126.195L363.71,126.584L371.003,125.047Z" data-name="Gangwon"/>
    <path class="region" d="M238.647,191.912L237.881,179.89L238.463,176.557L239.791,175.584L241.833,175.36L244.679,174.275L249.07,170.767L258.496,156.335L260.423,154.371L264.678,151.066L266.497,148.96L268.738,143.407L270.238,139.687L271.599,137.95L273.785,139.023L277.673,141.499L279.316,142.546L280.24,144.751L281.438,145.712L282.441,146.927L283.206,149.24L284.426,151.016L285.795,150.842L287.095,152.212L290.801,155.567L294.85,157.487L296.287,155.233L296.31,150.617L296.595,149.189L297.439,148.297L298.238,148.786L298.409,150.175L298.819,151.545L301.032,153.052L303.541,152.621L305.172,150.965L306.632,149.066L307.408,148.464L308.297,148.275L309.232,148.5L309.962,149.113L309.518,150.023L308.89,150.972L308.035,153.465L308.092,156.11L309.837,157.69L311.548,158.733L315.779,159.761L320.387,158.128L322.269,159.46L322.999,159.355L323.58,158.79L324.447,158.646L325.188,159.287L326.249,162.607L326.808,169.197L328.165,172.901L331.017,174.988L333.628,174.814L336.069,174.937L337.609,179.073L339.65,180.016L341.794,180.454L344.406,184.464L343.836,190.134L342.57,192.084L340.3,192.824L334.7,196.963L334.917,199.113L334.951,201.386L334.313,203.286L335.202,205.792L335.738,208.315L332.522,212.099L333.834,213.799L336.753,212.856L336.719,215.683L336.263,218.427L335.1,220.796L334.906,223.053L337.358,225.126L340.312,224.19L343.357,224.662L346.128,226.486L348.923,227.63L355.127,231.069L358.845,231.569L361.537,232.594L364.16,232.885L365.803,234.291L367.057,236.429L365.905,238.906L363.715,239.815L361.674,242.305L360.225,244.833L360.864,247.958L360.02,251.077L353.223,265.6L348.318,277.665L342.331,288.762L341.555,290.235L340.665,291.572L339.776,292.195L338.92,292.885L338.282,293.964L337.746,295.14L332.476,304.954L329.705,306.889L329.078,306.058L326.922,305.604L325.211,307.425L324.299,309.72L322.964,311.451L320.136,312.675L318.334,314.63L317.342,318.693L313.669,319.927L308.982,322.187L304.032,323.642L298.819,322.936L294.554,319.349L289.786,317.174L280.617,321.1L276.294,321.097L271.15,320.038L271.116,320.03L272.525,318.954L274.187,318.168L275.381,316.82L276.135,313.472L275.92,312.876L274.896,311.791L274.698,311.505L275.291,310.948L275.884,310.875L276.45,310.898L277.985,310.043L278.964,309.897L279.692,309.414L279.979,307.812L273.378,309.667L272.381,311.078L272.732,315.348L271.932,316.314L269.364,317.157L265.709,316.646L261.371,314.112L257.456,310.257L255.967,306.566L262.575,305.838L262.575,304.978L262.117,304.759L261.075,303.96L262.314,303.797L263.491,303.865L264.568,304.236L265.52,304.978L265.053,302.346L263.545,300L262.449,297.31L263.257,293.663L262.009,293.1L261.048,294.378L260.455,296.579L260.258,298.802L259.746,301.215L258.695,301.772L257.653,300.726L255.543,301.165L253.415,301.71L248.332,300.18L248.366,298.614L247.887,297.238L248.287,295.375L248.071,293.005L249.35,290.657L250.875,288.561L252.631,287.714L254.51,286.994L257.303,286.951L260.285,286.139L260.904,285.215L261.075,282.652L260.393,282.15L258.857,282.99L256.567,284.979L255.139,284.686L254.088,284.066L253.522,282.973L253.531,281.282L250.909,282.623L248.781,284.145L244.847,288.415L243.832,289.226L242.557,289.682L241.372,289.643L240.653,288.933L240.698,287.66L241.372,286.421L242.997,284.122L239.782,284.866L238.758,284.545L238.408,282.652L239.001,281.248L240.348,280.453L241.884,279.929L242.997,279.304L244.335,277.471L243.985,276.998L241.03,277.409L240.052,276.806L239.279,275.317L238.543,273.456L237.654,271.73L238.148,271.589L238.462,271.369L239.163,270.703L239.971,271.324L241.192,271.256L243.339,270.703L245.09,271.188L246.554,272.097L247.999,272.565L249.697,271.73L249.562,273.276L249.697,274.776L250.236,275.938L251.286,276.462L252.445,276.005L252.984,274.703L253.531,271.73L255.39,268.943L256.917,269.157L258.641,270.201L261.075,269.846L260.554,268.712L259.881,267.871L259.027,267.306L257.995,267.001L256.462,267.059L255.761,266.001L254.112,265.702L252.783,266.124L251.461,266.048L249.372,265.632L245.914,264.536L241.112,260.884L240.857,259.282L242.996,256.167L244.45,254.697L247.929,253.679L248.75,253.072L250.199,252L251.773,248.956L252.811,245.53L251.761,243.806L249.982,242.639L248.796,239.912L248.807,236.627L242.306,230.371L236.646,230.572L231.621,230.751L231.082,229.527L230.221,227.469L229.244,225.852L228.106,223.901L226.846,222.667L226.82,220.787L226.365,217.976L225.18,213.586L223.59,202.12L224.021,200.235L225.485,199.962L231.565,202.143L233.505,201.723L235.121,200.962L236.558,200.678L238.031,201.666L238.579,203.313L238.794,205.885L238.633,208.525L238.031,210.329L237.986,213.598L241.372,216.439L245.664,218.248L248.332,218.413L246.257,216.264L239.899,211.669L241.749,206.72L242.297,203.756L241.83,201.666L240.788,199.479L240.698,198.285L240.572,196.69L241.075,193.888L242.234,191.654L241.408,190.613L240.321,190.767ZM288.133,230.573L289.148,226.63L289.079,223.23L287.927,220.13L287.197,215.694L285.304,212.431L281.335,212.106L277.891,212.931L275.69,215.291L274.138,218.582L271.595,221.822L266.645,222.297L266.006,224.507L265.824,226.904L263.486,228.328L260.863,229.22L257.327,227.062L254.236,226.864L252.582,230.421L255.194,233.622L257.384,236.746L257.966,240.738L260.167,242.19L263.36,243.152L266.6,247.415L271.333,247.577L273.351,247.247L275.29,246.133L278.028,245.279L280.788,244.639L282.054,247.548L285.293,245.918L288.441,245.185L291.303,243.483L292.353,241.665L294.246,239.078L293.356,238.079L293.322,235.563L294.999,234.449L296.538,233.669L296.835,231.594L295.991,229.569L293.744,229.601L291.155,230.536ZM197.574,195.451L199.747,195.417L201.768,195.735L202.791,196.894L202.064,199.371L200.106,201.064L197.681,201.223L193.083,200.235L192.069,200.632L190.829,201.291L189.761,201.32L189.321,199.803L189.563,199.326L190.829,195.473L192.185,194.155L193.739,193.734L195.508,194.189ZM204.354,210.432L205.728,211.521L206.788,212.724L207.003,214.051L205.836,215.56L203.6,215.696L196.11,209.853L197.08,208.967L197.538,207.861L198.166,205.238L198.508,204.562L199.046,203.847L199.666,203.324L200.304,203.165L200.717,203.398L200.986,203.824L201.148,204.415L201.489,206.969L201.615,207.452L202.145,208.371L202.845,209.155ZM221.031,224.127L220.187,224.223L219.522,223.917L218.364,222.659L217.528,222.149L216.936,222.359L216.478,222.829L216.056,223.09L210.254,223.407L208.099,222.398L205.836,219.365L209.23,218.475L210.039,217.936L210.973,216.468L210.847,215.793L210.227,215.367L209.662,214.607L205.728,207.094L205.486,205.953L205.89,204.454L205.782,197.843L206.24,196.337L207.309,195.934L209.913,192.905L211.925,192.382L213.685,193.655L215.346,195.627L217.017,197.161L220.564,198.951L221.974,200.371L222.54,202.615L222.414,203.739L221.839,205.63L221.713,206.47L221.965,207.412L222.989,209.297L223.222,210.329L223.581,215.345L223.222,216.513L223.833,217.262L224.452,218.753L224.803,219.365L223.375,220.221L222.135,223.158ZM25.139,170.564L26.351,172.073L26.171,174.123L24.645,175.245L22.498,173.947L19.687,174.192L19.104,174.471L19.149,175.94L20.226,176.481L21.519,176.714L22.121,177.249L19.867,179.025L15.359,178.394L12,175.519L13.15,170.564L15.952,171.566L22.076,169.413ZM176.011,275.374L175.23,275.813L174.772,275.656L174.781,275.159L175.122,272.892L175.742,271.019L176.55,269.896L177.439,270.511L178.212,271.826L179.002,272.475L181.723,273.907L182.558,274.832L182.1,275.689L180.699,277.122L179.702,277.545L178.409,277.742L177.314,277.24L176.595,275.988L176.308,275.284ZM218.409,268.305L219.549,269.067L219.98,270.743L219.495,271.318L218.31,271.724L217.852,272.638L217.762,273.49L216.801,274.618L215.553,274.922L214.7,274.291L213.793,274.381L213.074,273.93L212.823,272.181L213.029,270.387L213.936,269.123L215.885,268.085ZM232.741,271.606L233.011,272.249L233.28,273.434L232.697,274.708L227.066,279.202L224.506,279.524L224.533,278.824L225.737,277.189L225.898,276.253L225.395,275.447L226.832,273.806L226.877,272.147L226.284,270.099L225.467,268.678L224.668,267.758L224.91,267.476L226.724,268.356L228.278,266.99L228.628,267.103L228.305,268.305L228.763,269.394L230.056,270.139L232.158,271.019ZM130.588,212.644L131.8,212.803L132.573,213.615L132.231,215.129L131.181,216.173L130.543,216.479L130.184,215.708L129.591,213.983L129.726,212.781ZM23.351,189.243L24.231,189.698L24.384,190.574L23.89,191.824L23.549,193.257L23.1,194.462L22.283,194.911L21.421,194.837L20.693,195.098L20.127,195.69L19.831,195.797L19.831,195.428L19.849,195.246L19.49,194.564L18.61,193.416L18.942,192.319L20.801,190.835L21.986,189.596L22.543,189.152Z" data-name="Gyeonggi"/>
    <path class="region" d="M209.73,381.44L210.56,383.978L212.05,386.277L212.679,388.42L211.628,387.929L206.725,388.208L205.135,387.951L204.834,385.9L205.366,385.17L206.214,384.389L206.662,383.174L204.031,384.837L202.8,384.246L203.142,382.197L205.135,379.434L204.381,378.585L202.872,380.372L202.361,379.138L201.203,379.758L201.805,376.464L201.381,371.434L200.873,368.393L199.732,364.557L200.686,363.305L202.641,361.485L204.745,360.767L206.213,363.121L206.411,363.966L205.931,364.973L205.09,365.649L205.189,366.593L207.048,370.808L207.345,372.15L206.86,373.267L207.429,374.253L208.681,374.995L209.662,376.708L207.345,376.708L207.345,377.557L208.099,377.708L209.662,378.585L209.54,379.449L209.429,380.128ZM254.607,437.756L252.337,438.455L250.11,439.993L248.242,441.792L246.176,442.785L243.716,443.202L241.408,444.223L239.728,443.401L239.163,442.452L238.983,441.203L238.408,439.488L237.492,438.005L235.633,435.555L234.636,433.895L236.172,432.65L235.454,431.794L233.945,431.161L232.563,430.699L230.038,426.353L228.098,425.509L226.631,426.358L225.937,426.352L225.88,424.847L223.387,423.25L221.232,423.59L220.562,426.164L220.196,427.048L219.441,426.353L219.881,422.361L223.628,420.458L226.937,419.412L231.565,420.748L229.931,418.044L229.006,416.981L227.775,416.08L227.039,415.907L226.159,416.425L225.53,416.08L224.704,415.178L224.021,414.21L226.338,407.829L227.667,405.016L229.284,403.941L228.063,402.443L223.375,401.005L221.686,400.108L223.348,398.569L228.26,397.376L229.284,395.949L228.574,394.132L226.832,393.674L223.195,393.652L222.441,393.128L221.139,391.538L220.25,390.752L220.25,389.826L221.686,389.826L220.033,386.752L222.032,385.644L224.31,384.954L226.433,381.852L230.978,380.584L233.128,379.434L226.689,379.434L225.135,380.321L222.755,383.872L221.004,384.207L219.908,382.873L218.902,380.338L218.265,377.736L218.337,376.2L220.636,373.502L221.704,371.837L221.354,371.088L219.238,371.854L218.283,370.954L217.417,370.378L216.893,370.27L216.381,369.008L216.863,367.857L216.771,366.598L216.215,364.236L215.543,363.235L215.495,362.659L217.018,362.563L219.224,361.536L221.526,361.612L221.698,359.937L222.36,358.456L221.46,357.262L220.152,356.989L218.38,355.233L219.501,353.622L221.054,352.37L220.003,350.463L217.357,349.966L216.822,347.667L217.668,345.974L220.25,345.563L218.768,343.871L218.256,343.019L217.915,341.809L216.99,342.599L215.427,344.308L213.676,345.059L213.326,346.034L213.388,347.002L214.168,348.199L214.306,350.534L213.493,353.216L213.978,356.818L212.806,359.891L211.807,361.149L209.764,359.552L207.63,359.457L205.507,358.057L206.039,350.628L206.694,347.943L205.427,347.339L205.809,343.849L204.623,342.425L202.845,342.739L201.848,344.532L201.579,346.734L200.78,348.347L198.265,348.386L199.298,350.503L201.31,353.722L202.037,355.988L200.825,357.018L200.986,358.154L202.845,360.677L201.157,361.013L199.729,361.829L198.535,363.004L197.574,364.43L197.592,363.423L197.466,362.4L197.214,361.471L196.837,360.677L198.355,357.32L195.113,351.992L196.083,349.321L195.248,345.563L193.209,346.706L190.291,350.402L188.135,351.203L186.869,351.454L185.737,351.902L184.606,351.981L183.268,351.203L182.944,350.564L182.486,349.282L182.316,348.016L182.855,347.445L187.408,347.49L188.566,346.7L188.539,344.622L187.354,342.459L185.656,341.624L183.878,341.103L182.451,339.926L181.885,341.574L181.561,345.003L180.942,346.594L179.649,347.77L179.218,346.661L179.352,343.21L179.137,339.859L179.442,338.928L182.271,335.329L182.828,334.073L183.268,332.312L183.618,333.647L184.094,334.847L184.687,335.979L185.45,337.101L186.034,336.551L186.761,336.607L187.596,336.899L188.539,337.101L187.381,335.464L186.204,333.344L189.348,334.286L190.641,333.95L191.476,332.312L188.656,332.11L186.923,331.325L186.716,329.608L188.539,326.668L186.043,324.597L186.204,322.677L188.108,321.127L190.802,320.156L190.102,323.525L190.371,324.456L191.889,324.782L194.628,324.732L195.364,324.221L196.083,322.98L196.28,319.875L196.002,315.702L196.514,312.297L199.082,311.505L198.75,313.41L198.831,316.393L199.316,319.415L200.69,323.048L200.016,324.327L198.939,325.472L198.265,326.668L198.301,327.936L198.993,329.967L199.082,330.517L198.481,331.168L196.496,332.469L196.083,332.828L196.191,334.017L196.55,335.273L197.134,336.007L197.924,335.643L199.783,333.927L201.175,333.888L204.354,336.075L202.073,331.128L201.265,328.048L202.441,326.668L204.219,328.946L205.306,329.653L205.809,328.161L206.276,327.695L207.425,327.229L209.635,326.668L209.635,325.809L208.754,325.674L206.626,324.782L206.626,323.923L209.284,323.3L210.847,320.757L211.251,317.657L210.389,315.365L209.428,315.045L206.536,314.994L205.108,314.416L204.04,313.112L203.689,311.831L204.219,311.381L205.809,312.533L206.536,310.392L205.755,309.122L204.058,308.605L202.037,308.756L202.854,307.694L203.95,306.929L205.135,306.727L206.213,307.34L207.264,308.149L208.189,308.335L208.611,307.907L208.126,306.867L208.126,305.838L212.194,305.771L214.143,306.457L214.969,308.284L214.412,309.414L213.352,310.611L212.706,312.179L213.406,314.416L214.376,313.444L215.625,312.764L216.702,312.786L217.16,313.944L217.286,314.91L217.798,315.786L217.915,316.73L217.717,317.09L216.72,318.28L216.406,319.134L216.406,325.298L216.774,327.083L217.582,328.334L218.391,328.806L218.75,328.161L219.199,324.726L221.219,318.134L221.686,314.887L222.279,314.123L223.617,315.034L225.53,317.157L226.311,318.651L226.877,320.032L227.712,320.942L229.284,321.009L229.284,320.156L228.494,319.106L227.533,316.292L226.689,314.887L219.926,307.728L219.441,307.34L219.818,305.85L220.761,306.018L221.893,307.087L223.653,309.29L224.587,310.122L225.719,310.639L227.093,310.645L228.125,310.038L228.224,309.088L227.47,308.2L225.907,307.812L223.806,306.8L221.52,304.657L220.49,301.465L220.25,299.325L222.27,299.269L224.03,300.118L225.611,301.508L227.819,303.088L229.928,304.547L230.794,305.431L232.468,306.573L234.082,307.466L235.186,309.352L234.666,311.219L233.595,312.483L233.81,313.472L234.906,315.573L235.04,316.865L234.636,319.134L235.849,318.291L236.334,317.269L236.63,316.123L236.21,312.736L236.66,311.616L237.36,310.437L238.38,308.513L240.201,307.659L241.911,307.643L243.821,307.889L245.936,308.664L248.613,309.384L250.532,310.645L252.858,313.039L253.019,315.989L251.286,321.953L252.606,321.077L254.681,318.398L255.812,318.19L256.603,319.325L257.061,321.358L257.303,325.298L257.186,326.14L256.675,328.015L256.567,329.103L256.782,330.236L257.761,331.886L258.695,336.176L258.381,337.403L256.567,337.958L256.899,339.119L257.33,339.909L257.968,340.447L258.884,340.867L259.53,337.773L260.617,335.935L261.174,333.972L260.258,330.517L262.494,331.168L264.838,331.459L261.048,327.251L259.916,324.934L262.171,323.923L264.2,323.586L268.996,321.65L271.116,320.03L271.15,320.038L276.294,321.097L280.617,321.1L289.786,317.174L294.554,319.349L298.819,322.936L304.032,323.642L304.898,325.688L306.199,327.056L307.681,327.919L309.575,331.738L311.023,332.756L310.909,335.591L311.821,336.427L312.551,337.812L312.791,339.375L312.517,340.93L311.981,342.382L311.639,343.887L311.491,345.072L310.932,346.125L309.905,346.413L308.856,346.249L307.932,347.241L305.606,351.288L302.549,355.724L286.847,349.459L284.275,356.584L284.62,377.398L282.943,379.004L281.94,381.88L291.988,383.854L299.51,381.796L305.422,391.074L307.422,394.978L307.994,404.91L310.28,412.352L315.71,410.935L320.512,407.341L322.098,406.804L324.983,404.473L326.58,398.553L328.028,396.224L328.564,393.005L330.013,391.05L331.872,389.693L333.4,390.384L334.814,390.855L334.392,393.232L332.579,394.602L331.461,396.641L330.458,398.935L327.96,403.436L326.637,408.728L326.443,412.511L326.739,416.402L330.298,415.663L333.571,416.727L336.959,418.804L338.099,422.87L337.951,427.594L338.898,432.277L341.144,436.281L343.654,440.184L341.042,442.807L338.361,445.165L335.088,446.074L331.838,446.226L329.454,446.811L323.067,445.972L322.611,444.876L323.386,443.318L322.725,441.958L321.311,441.598L317.649,439.754L312.688,430.805L309.164,427.671L307.316,429.567L305.834,431.878L303.518,432.358L301.956,433.056L300.359,433.614L294.28,434.799L291.189,435.999L287.927,436.609L285.578,432.947L286.559,426.919L282.487,426.104L271.059,429.711L264.855,431.045L259.574,431.624Z" data-name="South Chungcheong"/>
    <path class="region" d="M244.45,254.697L244.132,253.755L238.348,253.015L235.654,256.456L232.868,254.323L234.004,251.799L235.466,249.594L234.547,248.035L232.572,246.961L230.76,246L231.014,243.46L230.653,241.466L231.728,239.599L234.893,238.643L235.84,238.158L236.076,237L234.588,236.594L234.185,237.805L231.915,238.053L231.325,236.664L231.082,234.117L231.621,230.751L236.646,230.572L242.306,230.371L248.807,236.627L248.796,239.912L249.982,242.639L251.761,243.806L252.811,245.53L251.773,248.956L250.199,252L248.75,253.072L247.929,253.679ZM227.153,235.601L227.587,236.048L228.018,236.727L228.603,237.28L229.06,238.218L229.334,238.947L228.734,239.198L227.802,239.892L227.425,240.396L225.497,240.859L224.643,240.717L223.471,241.27L220.893,242.398L219.504,243.647L218.734,245.008L213.923,248.645L212.84,248.397L211.829,248.514L211.39,248.404L210.929,246.709L210.056,246.156L209.654,246.596L209.29,246.721L209.164,246.435L209.352,245.945L209.076,245.268L208.405,245.182L207.961,245.769L207.278,246.306L206.454,245.933L205.267,245.634L205.968,244.936L205.724,244.182L204.517,243.032L204.223,242.307L204.646,241.277L205.302,241.078L206.215,241.553L211.216,238.046L214.796,237.654L217.23,237.713L219.473,236.528L220.24,233.41L221.804,232.831L223.078,234.119L223.698,234.363L224.336,234.725L224.964,234.985L225.584,235.019L226.249,235.15Z" data-name="Incheon"/>
    <path class="region" d="M213.204,529.728L211.682,527.995L211.143,526.552L211.952,523.351L213.846,519.389L216.836,512.397L219.358,508.763L222.958,507.471L227.059,506.627L230.566,506.437L232.184,505.139L233.738,502.893L235.936,502.328L237.905,504.541L239.926,507.041L241.408,507.538L239.971,502.471L238.947,500.169L237.277,499.208L221.62,501.769L216.166,498.366L216.498,494.714L216.588,493.253L219.172,491.966L221.427,489.736L223.515,487.341L226.827,485.408L230.89,483.166L233.976,478.852L234.446,474.792L236.142,473.782L237.395,472.989L238.062,472.409L242.02,472.009L245.894,472.488L248.35,474.385L250.11,474.828L251.286,476.865L251.744,475.758L252.121,474.219L252.283,472.62L250.809,471.444L249.793,470.7L247.683,469.652L245.286,468.016L243.339,466.556L242.315,466.036L242.611,464.861L243.527,463.598L244.443,462.845L245.449,462.612L251.61,463.011L252.957,462.9L253.953,462.379L254.627,461.155L254.878,460.151L255.408,459.459L256.926,459.198L257.411,458.755L256.836,457.757L255.66,456.731L254.358,456.249L254.007,456.526L245.898,459.808L243.177,459.941L237.834,459.591L232.559,459.173L232.509,456.828L232.175,453.6L231.156,452.711L227.864,451.58L223.008,452.342L222.531,448.23L232.532,447.152L237.971,446.474L243.473,446.149L245.251,445.078L247.146,445.633L249.463,444.445L253.531,441.353L258.695,439.293L260.877,437.727L261.075,435.755L254.607,437.756L259.574,431.624L264.855,431.045L271.059,429.711L282.487,426.104L286.559,426.919L285.578,432.947L287.927,436.609L291.189,435.999L294.28,434.799L300.359,433.614L301.956,433.056L303.518,432.358L305.834,431.878L307.316,429.567L309.164,427.671L312.688,430.805L317.649,439.754L321.311,441.598L322.725,441.958L323.386,443.318L322.611,444.876L323.067,445.972L329.454,446.811L331.838,446.226L335.088,446.074L338.361,445.165L341.042,442.807L343.654,440.184L344.6,441.323L345.649,442.286L346.539,442.067L347.258,441.105L349.128,442.208L350.782,444.171L355.72,445.796L356.747,447.082L358.515,447.59L362.062,445.415L366.133,443.576L367.741,445.112L369.361,445.99L370.775,444.693L372.19,443.206L376.706,450.925L376.193,459.604L372.155,463.943L371.083,466.803L365.597,469.721L362.883,470.555L361.377,470.393L360.294,471.092L358.218,475.588L355.834,478.083L353.314,480.321L352.082,483.882L351.763,488.06L350.371,491.106L348.66,494.31L347.372,498.403L346.425,502.631L344.885,505.778L344.771,509.191L347.6,510.389L348.01,511.885L348.216,513.598L349.436,516.791L349.242,520.256L350.371,522.814L351.957,523.874L351.295,527.589L346.687,533.107L345.957,536.728L345.798,540.064L343.482,542.433L337.187,537.35L330.127,534.795L326.124,537.028L322.907,540.494L319.452,540.976L315.79,541.004L311.787,541.542L307.727,541.469L305.845,540.368L304.168,539.072L302.23,539.568L299.937,539.537L296.607,540.089L293.436,541.989L289.33,541.378L286.673,538.545L286.821,534.072L284.574,531.53L283.901,529.019L284.882,525.116L282.658,521.722L279.408,521.901L278.609,523.293L277.526,524.336L276.819,526.127L276.556,528.058L273.146,528.1L267.968,521.075L264.592,518.307L262.665,517.488L260.657,517.344L258.821,519.528L255.08,519.161L252.309,521.652L252.297,523.482L252.4,525.316L251.385,526.855L249.993,527.879L250.073,529.324L250.29,530.708L249.366,532.624L247.906,533.893L246.104,534.764L244.211,535.316L242.614,536.287L241.132,537.385L237.436,537.937L233.935,539.208L230.65,540.033L227.901,539.107L228.061,535.442L228.768,531.799L229.407,526.848L226.225,525.991L215.504,528.988L213.223,529.722ZM193.47,502.62L192.985,502.112L192.634,501.218L192.85,500.356L194.008,499.749L193.847,499.528L193.299,499.175L193.568,498.854L194.179,498.512L194.592,497.927L195.257,497.816L195.652,497.634L195.463,496.888L195.939,496.91L197.188,497.137L198.023,496.458L198.427,496.01L198.903,496.375L199.136,497.187L198.723,498.197L196.694,499.953L195.329,501.477L194.466,502.145L194.107,502.476Z" data-name="North Jeolla"/>
    <path class="region" d="M364.177,585.534L363.453,585.332L358.981,585.376L357.49,585.124L356.897,584.439L356.628,583.415L355.981,582.11L354.715,581.102L354.419,582.138L354.607,583.749L354.85,584.456L354.05,586.938L353.61,587.787L352.587,588.97L348.411,592.31L346.094,593.345L344.432,591.916L342.349,587.666L340.624,586.976L339.421,588.696L338.828,591.39L338.954,593.641L339.978,596.022L341.684,599.098L343.642,601.779L345.393,602.905L346.633,604.514L347.791,605.072L349.165,604.207L352.587,600.991L354.957,600.674L356.978,601.067L358.864,601.188L360.938,600.077L360.813,602.73L360.454,604.612L359.358,608.413L358.092,615.119L357.176,616.671L353.296,617.971L350.225,616.43L347.764,615.906L345.743,620.342L345.097,619.916L344.935,619.954L344.782,620.2L344.235,620.342L345.097,622.111L345.743,624L346.552,629.993L346.049,631.106L344.908,630.474L343.103,628.574L340.463,628.247L338.496,627.161L337.23,625.179L336.691,622.176L337.365,619.337L338.801,616.54L339.843,613.895L339.331,611.627L338.442,610.364L336.691,606.575L336.233,606.28L335.613,606.264L334.967,606.165L334.428,605.585L334.374,604.897L334.563,604.087L334.886,603.573L333.216,600.05L332.928,598.736L333.027,597.943L333.512,596.63L333.62,595.94L333.377,595.185L332.865,594.593L332.353,594.424L332.111,594.982L331.734,595.283L329.848,600.077L329.12,601.095L328.743,601.357L328.177,601.423L324.415,602.752L322.223,603.026L317.455,602.905L315.659,603.442L317.114,604.639L319.96,605.886L322.304,606.575L322.304,607.423L317.616,608.921L315.246,610.255L314.841,612.086L315.784,612.857L317.859,612.021L318.963,612.496L319.745,613.775L319.511,614.245L318.919,614.398L318.613,614.758L320.149,620.101L323.337,622.963L326.785,625.179L329.147,628.574L328.016,628.4L326.076,628.389L325.25,628.574L329.992,630.403L330.604,631.887L330.916,634.681L329.907,635.693L328.77,636.659L326.615,636.556L325.25,636.9L320.23,633.769L318.613,633.245L317.185,633.518L315.407,634.336L313.898,635.416L313.261,636.441L313.521,636.867L314.841,639.648L316.388,639.987L317.323,640.607L321.518,639.512L323.813,641.469L318.579,646.276L316.72,648.92L314.698,647.992L311.518,650.407L311.851,652.741L313.261,654.277L310.207,654.292L305.7,648.329L304.146,645.131L300.006,640.645L298.739,640.934L294.366,643.224L294.806,644.597L295.12,645.131L293.324,644.51L291.591,644.172L290.109,643.393L289.085,641.469L288.951,639.5L289.651,638.355L292.103,636.9L292.893,636.196L295.12,633.245L296.494,630.353L297.284,629.36L298.892,628.574L298.784,630.812L298.245,632.983L296.629,636.9L299.862,636.687L302.565,635.7L304.181,633.463L304.146,629.502L303.499,627.952L302.646,627.068L301.99,626.031L301.892,624L302.484,622.935L305.663,619.413L306.813,620.019L307.567,620.839L307.756,621.887L307.172,623.165L307.837,624.917L308.78,626.14L310.046,626.555L311.752,625.916L312.471,624.983L313.979,621.74L314.841,620.342L313.306,618.053L312.713,615.66L311.932,614.578L309.839,616.212L307.432,617.233L305.439,615.567L302.718,611.168L301.155,613.627L298.928,619.358L297.383,621.248L295.794,621.893L294.447,621.822L291.681,621.248L290.378,621.707L289.166,622.821L287.172,625.458L286.283,626.211L282.242,628.574L280.06,630.239L278.659,631.057L277.312,631.412L276.477,631.843L276.288,632.951L276.342,634.429L276.135,635.994L275.408,637.096L274.384,638.295L273.872,639.724L274.698,641.469L268.61,647.463L268.807,652.997L267.774,653.918L264.838,652.447L263.868,653.618L263.41,654.93L263.464,656.367L264.083,657.93L262.656,657.478L259.566,655.273L255.327,654.032L254.358,653.444L253.495,650.879L253.953,644.096L253.531,641.469L254.142,639.795L254.007,637.734L253.28,635.929L252.023,634.985L250.828,635.329L249.625,636.463L248.7,637.914L248.332,639.19L248.781,641.043L249.481,642.657L249.517,643.785L246.113,644.924L246.554,646.559L249.023,649.702L244.793,652.159L243.204,653.623L244.847,654.277L245.224,654.576L245.332,655.23L245.206,655.883L244.847,656.177L244.174,656.041L243.15,655.42L242.611,655.273L241.156,655.491L240.86,656.106L240.842,657.102L240.276,658.425L239.414,659.007L236.145,659.835L234.915,660.874L234.475,661.739L231.79,670.768L231.565,672.062L231.565,673.606L228.871,673.03L223.788,674.704L222.513,674.443L222.36,672.867L223.402,669.654L223.195,668.136L222.189,667.272L220.797,666.994L217.915,667.141L217.915,666.309L218.498,665.537L218.687,665.004L218.902,662.898L219.28,662.828L219.774,662.991L220.25,662.664L221.812,659.824L222.109,658.458L221.686,657.092L221.139,656.656L220.33,656.373L218.687,656.177L217.502,655.85L217.34,655.126L217.663,654.467L217.915,654.277L217.959,652.562L218.373,650.911L218.175,650.029L216.406,650.617L216.891,647.387L219.091,645.763L222.028,645.196L224.776,645.131L224.273,644.096L223.59,643.3L222.728,642.744L221.686,642.384L223.429,641.163L224.506,639.735L224.542,638.481L223.195,637.734L222.701,637.93L221.704,639.173L221.004,639.648L220.088,639.637L218.66,638.753L217.915,638.732L217.241,639.342L216.783,640.258L216.406,641.469L215.427,641.686L214.484,641.654L213.406,641.469L211.044,641.512L209.751,641.741L208.126,642.384L207.919,640.258L206.976,639.026L204.354,637.734L204.39,637.308L203.842,636.229L203.178,635.58L202.845,636.441L202.522,636.954L201.741,637.407L200.852,637.587L200.151,637.314L197.861,635.122L197.574,634.985L197.196,633.638L197.385,633.251L197.834,633.07L198.265,632.329L198.705,632.956L199.81,632.972L200.609,632.329L200.151,630.954L197.196,629.502L194.906,627.821L194.718,623.957L195.679,619.659L196.837,616.671L196.954,615.655L196.864,614.409L197.026,613.359L197.924,612.922L198.75,613.004L199.612,613.25L200.259,613.693L200.986,615.294L204.354,620.342L203.303,621.729L202.98,623.072L203.169,624.442L203.528,625.916L205.809,632.329L207.183,633.152L212.652,634.069L214.996,635.689L216.262,635.574L217.16,633.245L215.921,633.431L215.265,633.103L212.994,632.608L211.924,630.934L210.519,629.527L210.91,626.446L209.452,626.713L208.748,628.61L207.602,628.713L206.909,626.208L206.569,622.859L207.408,620.949L206.772,618.603L209.791,618.304L214.416,619.315L215.018,620.388L214.726,622.133L214.753,622.673L214.708,623.192L214.969,624L216.118,624.744L216.787,625.649L218.225,626.589L220.206,627.374L221.403,628.536L222.94,629.643L224.108,630.41L224.587,629.819L222.276,626.763L223.65,626.465L225.689,627.641L228.32,629.078L231.501,630.095L233.81,629.502L231.484,629.109L229.598,627.914L226.284,624.999L227.093,624L224.704,622.253L221.094,617.621L219.091,616.671L216.343,616.119L213.079,616.331L210.829,614.868L208.048,615.62L205.497,614.778L205.161,613.503L206.739,611.525L208.286,610.891L211.574,611.405L215.77,609.528L220.815,613.25L222.513,612.922L222.944,613.217L223.213,613.491L223.509,613.726L224.021,613.922L223.536,611.337L223.752,608.976L225.072,607.248L227.775,606.575L232.831,608.09L235.418,608.281L234.636,606.575L236.343,605.717L237.259,605.525L238.408,605.585L236.765,603.693L234.259,603.234L228.53,603.748L228.961,602.446L228.817,601.56L228.53,600.641L228.53,599.24L228.934,598.353L229.517,597.697L230.002,596.876L230.038,595.48L229.149,593.493L227.632,593.033L225.988,593.805L224.776,595.48L224.641,596.597L225.368,598.862L225.53,600.077L225.342,600.258L224.021,602.905L222.782,607.489L221.633,609.052L219.441,609.249L219.441,608.937L218.75,608.413L219.199,607.696L219.792,606.296L220.25,605.585L218.75,604.82L217.744,605.268L216.774,606.121L215.319,606.575L212.383,605.919L211.449,606.362L211.264,607.75L209.751,607.724L207.371,608.511L206.213,607.92L205.836,606.493L206.626,605.159L208.88,602.905L209.697,601.669L210.155,600.695L210.344,599.782L210.389,598.736L210.093,596.728L210.47,595.737L211.898,594.478L210.524,593.394L209.32,591.144L208.665,588.51L208.88,586.297L210.416,584.883L212.499,583.453L213.146,582.269L210.389,581.612L209.132,581.842L208.395,582.483L207.803,583.152L206.967,583.453L205.89,584.006L206.051,585.322L206.59,586.866L206.626,588.126L205.081,589.534L203.088,589.671L201.157,589.041L199.774,588.126L200.825,587.403L201.283,587.206L200.313,586.51L199.487,585.672L198.804,584.67L198.265,583.453L199.531,582.801L200.771,582.867L203.528,583.453L203.195,580.559L206.276,577.495L205.459,574.671L202.315,570.31L200.376,568.533L198.265,567.808L199.136,570.837L198.373,572.57L196.81,572.625L195.248,570.574L196.28,569.136L193.443,565.36L193.047,563.121L194.637,561.271L196.891,560.969L198.894,561.995L199.774,564.131L201.175,563.231L201.956,561.682L202.845,558.596L203.627,560.134L203.77,561.43L203.474,563.922L202.98,565.185L202.845,565.964L203.061,566.765L203.501,566.765L204.013,566.573L204.354,566.804L204.794,568.582L204.902,569.345L205.306,569.784L206.626,570.574L207.695,570.952L209.554,571.018L210.389,571.495L209.751,573.031L209.931,574.512L210.721,575.888L211.898,577.1L214.682,570.787L214.969,568.648L214.915,566.244L214.376,565.382L212.302,564.861L211.422,564.367L210.694,563.626L209.563,560.595L205.943,556.361L205.108,554.41L205.351,553.751L205.863,553.196L206.384,552.465L206.626,551.218L205.459,550.393L204.893,549.322L205.108,547.452L203.689,548.013L202.226,548.25L199.082,548.288L200.313,546.765L202.333,546.298L204.623,546.171L206.626,545.682L205.971,545.429L205.62,545.121L205.216,544.852L204.354,544.681L204.893,543.46L205.539,542.745L206.249,542.195L206.967,541.414L207.345,540.391L207.165,539.505L206.815,538.653L206.626,537.717L207.003,535.609L207.964,533.529L210.389,529.824L211.036,530.495L212.652,532.599L214.601,533.193L215.589,533.127L215.319,532.136L213.204,529.728L213.223,529.722L215.504,528.988L226.225,525.991L229.407,526.848L228.768,531.799L228.061,535.442L227.901,539.107L230.65,540.033L233.935,539.208L237.436,537.937L241.132,537.385L242.614,536.287L244.211,535.316L246.104,534.764L247.906,533.893L249.366,532.624L250.29,530.708L250.073,529.324L249.993,527.879L251.385,526.855L252.4,525.316L252.297,523.482L252.309,521.652L255.08,519.161L258.821,519.528L260.657,517.344L262.665,517.488L264.592,518.307L267.968,521.075L273.146,528.1L276.556,528.058L276.819,526.127L277.526,524.336L278.609,523.293L279.408,521.901L282.658,521.722L284.882,525.116L283.901,529.019L284.574,531.53L286.821,534.072L286.673,538.545L289.33,541.378L293.436,541.989L296.607,540.089L299.937,539.537L302.23,539.568L304.168,539.072L305.845,540.368L307.727,541.469L311.787,541.542L315.79,541.004L319.452,540.976L322.907,540.494L326.124,537.028L330.127,534.795L337.187,537.35L343.482,542.433L342.889,545.38L345.159,548.058L346.265,551.517L346.733,558.693L348.227,561.378L350.941,563.358L353.405,565.944L354.363,568.795L355.549,571.282L362.427,578.78L363.909,582.434L363.898,584.936ZM273.751,547.548L268.059,545.411L265.037,546.319L262.14,546.979L258.182,545.928L255.799,548.184L258.821,554.828L264.832,558.438L271.641,559.526L275.986,553.726ZM294.438,649.098L297.886,648.689L299.682,648.825L301.191,649.555L302.394,651.728L302.035,654.217L300.58,656.253L298.542,657.092L293.989,657.93L292.228,657.679L290.935,657.048L288.295,655.273L288.295,654.277L288.897,653.531L289.004,652.91L288.573,652.311L287.541,651.614L289.067,650.487L290.827,649.768ZM206.931,647.125L207.102,648.967L206.806,651.026L206.213,653.019L204.04,657.679L203.16,659.095L202.064,659.835L201.875,659.421L199.989,657.636L199.118,657.092L199.118,657.93L198.669,660.074L188.162,665.809L186.896,666.244L182.253,666.635L180.969,666.309L180.726,665.145L181.346,664.166L182.163,663.35L182.477,662.664L181.885,661.837L178.706,659.835L178.706,662.664L176.389,659.927L177.763,655.458L180.906,651.843L183.986,651.614L184.983,648.722L185.63,647.692L186.653,646.548L187.839,645.894L188.889,645.714L189.689,645.12L189.994,643.224L191.287,644.815L193.039,644.995L194.601,643.965L195.275,641.926L194.431,640.253L191.593,638.012L192.329,636.9L194.116,636.769L195.939,637.766L197.52,639.026L198.696,639.648L198.966,640.024L199.289,640.869L199.819,641.79L200.555,642.384L201.058,642.221L203.555,640.645L203.653,641.807ZM361.648,622.176L362.797,622.471L363.803,624.066L364.594,626.031L365.528,629.393L365.626,631.352L365.294,633.256L364.495,635.1L363.39,636.234L362.151,636.332L360.912,635.667L357.005,631.685L356.547,630.135L357.212,627.668L357.696,627.024L359.762,625.458L360.13,624.655L360.965,621.248L359.295,619.468L359.493,618.381L360.696,617.824L362.07,617.665L363.255,618.2L363.552,619.457L362.986,620.937ZM163.78,618.315L165.1,619.511L165.441,620.068L165.585,621.095L165.343,622.149L164.885,623.132L163.214,625.387L162.442,625.955L161.678,626.02L160.547,625.916L160.538,625.496L158.939,624.557L157.206,623.82L156.721,624L155.724,621.761L156.479,620.724L159.739,619.413L161.741,616.66L162.424,616.31L162.837,616.583ZM165.783,609.233L165.828,612.086L165.316,611.851L164.058,611.496L163.502,611.168L162.55,612.43L161.041,612.441L159.658,612.146L159.047,612.496L158.823,614.299L158.23,615.884L157.269,617.07L155.958,617.665L154.665,617.512L153.713,616.611L153.138,615.185L152.949,613.414L153.282,611.742L154.162,610.561L155.374,609.774L156.721,609.249L158.221,609.829L160.197,609.397L163.807,608.013L164.543,607.915L165.073,608.002L165.477,608.396ZM171.171,591.39L171.647,589.605L172.725,589.337L173.955,590.186L174.826,591.703L175.086,593.641L174.745,595.518L173.901,597.128L172.617,598.239L171.027,598.715L170.111,598.364L169.393,597.741L168.459,597.401L164.858,598.211L163.502,598.239L163.502,597.401L164.588,596.449L166.573,593.274L168.082,591.894L168.791,591.938L169.842,592.228L170.758,592.212ZM177.197,572.867L176.604,573.02L173.668,572.236L172.617,572.406L172.213,572.104L171.943,571.808L171.656,571.578L171.171,571.495L172.033,567.216L172.617,565.964L173.38,565.525L174.691,565.086L175.904,564.493L176.442,563.626L177.278,561.792L179.271,560.496L181.534,559.958L183.223,560.414L179.864,562.374L179.092,563.511L179.002,564.861L179.487,566.25L180.969,568.648L179.783,569.142L178.544,570.354L177.601,571.77ZM309.453,710.995L310.1,711.569L310.89,711.791L311.177,712.246L311.043,712.901L309.48,712.143L307.971,711.791L307.702,711.374L307.325,710.464L307.082,709.353L306.669,709.06L306.328,708.638L306.058,707.727L306.22,707.191L306.166,706.573L306.247,706.02L306.597,705.906L307.001,706.042L307.513,705.879L307.81,705.532L307.971,705.484L308.241,706.053L307.864,707.288L308.052,708.665ZM334.042,653.531L334.536,654.859L334.536,655.649L333.701,656.547L331.689,657.854L329.929,658.392L329.3,658.033L329.255,656.89L328.51,656.106L327.396,655.747L326.884,655.055L327.181,654.522L325.977,653.754L325.241,653.204L325.636,652.202L325.564,651.451L325.376,650.851L325.914,650.547L326.696,650.884L327.522,651.363L329.067,651.756L329.094,652.104L329.605,651.973L330.602,650.982L331.617,650.928ZM361.747,645.981L362.474,646.384L362.959,647.153L362.717,647.986L361.343,648.46L360.445,648.498L360.211,648.264L359.852,647.725L358.828,647.153L357.221,646.613L356.143,645.78L355.649,644.641L355.11,643.812L354.203,643.322L353.422,642.379L354.014,641.234L355.873,640.346L357.894,640.073L359.331,641.141L361.001,644.401L360.804,645.338L360.858,645.818ZM176.038,633.954L176.29,634.205L176.496,634.887L176.398,636.278L176.056,637.766L175.958,639.059L175.338,639.729L174.449,640.389L173.524,641.267L171.351,642.559L170.147,642.744L168.872,642.373L168.477,641.686L169.114,641.463L169.788,641.43L170.345,640.869L171,640.367L170.892,639.909L168.441,639.364L169.034,638.655L170.56,638.421L172.159,638.372L173.416,637.407L173.964,636.098L173.425,634.756L172.32,632.983L171.62,630.73L172.455,630.102L173.802,631.188L174.601,632.023L175.958,632.787ZM169.195,637.608L168.144,638.094L167.255,637.347L166.824,632.694L167.22,630.108L168.144,628.929L169.554,632.023L170.731,633.741L171.656,635.623L171.351,637.194L170.354,637.532ZM103.835,621.652L105.101,621.325L105.317,621.871L104.347,622.832L103.835,623.443L103.548,624.208L101.805,626.244L101.464,627.188L100.737,628.405L100.171,629.186L99.722,629.682L98.644,629.229L97.935,627.308L98.052,625.518L98.662,623.886L99.399,622.444L100.198,621.183L101.123,620.494L102.03,620.314L102.524,620.702L102.892,621.674ZM184.202,615.698L184.579,616.873L184.624,618.31L183.986,619.593L182.585,619.73L181.292,618.446L180.268,616.955L179.083,616.938L178.49,617.468L178.104,617.654L177.278,617.725L176.496,617.152L176.308,616.004L175.302,614.157L173.129,611.862L172.671,610.747L173.739,611.031L174.61,611.037L175.428,610.616L176.604,610.495L177.996,610.709L179.029,611.168L179.685,611.884L180.654,612.376L181.966,612.463L183.043,612.726L183.78,613.398L184.175,614.135L184.094,614.808ZM183.609,607.707L183.259,608.057L182.882,608.921L183.115,610.736L182.451,611.447L181.13,611.796L179.846,611.064L178.409,609.829L176.559,609.14L175.203,608.341L176.29,607.428L179.038,606.975L180.645,606.275L181.481,605.585L182.54,606.056L183.34,607.15ZM173.757,603.627L172.832,602.348L172.069,600.947L172.401,599.88L174.018,599.065L175.338,598.928L176.389,599.524L177.412,599.492L177.709,598.682L177.493,597.106L178.544,596.077L179.99,596.104L180.69,596.033L181.238,596.339L181.768,597.106L181.885,597.938L180.403,598.89L180.942,600.98L180.672,602.249L179.891,602.736L178.804,602.687L178.113,603.474L178.14,604.973L177.781,606.253L176.604,606.92L175.607,606.838L175.365,606.045L175.41,605.509ZM192.185,591.04L191.206,591.467L189.859,591.423L189.312,590.207L189.536,588.926L190.398,588.455L192.284,588.455L192.931,588.718L192.958,589.298L192.598,590.689ZM184.678,573.228L184.956,573.832L185.064,574.523L185.037,575.839L184.57,576.267L184.013,576.579L183.42,576.355L182.433,575.258L181.983,574.951L181.391,575.247L180.861,575.192L180.699,574.605L180.277,574.391L179.729,574.408L179.577,574.112L180.376,573.503L180.062,573.327L179.568,573.415L179.092,573.272L179.298,572.664L180.151,572.099L180.861,571.989L181.822,572.433L183.232,572.318L184.211,572.598ZM68.73,707.202L68.191,706.855L66.036,704.871L64.806,704.112L64.536,703.077L65.075,701.673L65.919,700.892L67.141,701.304L68.11,702.508L69.691,705.776L69.799,706.833L69.457,707.429L68.972,707.337ZM231.089,691.198L232.05,691.605L232.966,692.755L232.697,693.347L232.239,692.929L231.843,692.864L231.646,693.385L231.233,693.222L230.227,692.668L229.194,692.696L228.601,693.276L228.224,693.992L226.994,694.828L225.898,695.821L224.237,696.824L222.126,696.732L220.95,695.17L220.869,693.151L221.839,691.171L223.797,689.803L225.476,689.803L227.658,691.198L228.305,691.279L229.221,690.997L230.46,691.019ZM239.153,693.249L239.594,693.493L239.971,694.144L239.621,694.546L239.136,694.622L238.974,695.414L238.974,696.759L238.417,697.806L237.33,698.104L236.765,697.768L236.567,697.15L236.037,696.727L235.471,696.602L235.229,694.812L235.93,691.735L236.172,690.02L235.445,689.342L235.229,688.728L236.145,687.849L236.199,687.393L237.142,687.404L239.01,688.365L239.27,689.667L238.22,690.574L238.031,691.589ZM265.341,687.322L266.4,688.283L267.065,689.032L266.778,690.704L266.508,691.42L265.808,692.663L264.515,693.363L262.871,693.504L261.659,692.875L260.662,691.974L259.934,692.061L259.557,692.728L259.144,692.484L258.695,690.433L259.378,689.049L259.557,687.778L259.988,686.769L260.77,686.019L262.341,685.243L264.227,685.726ZM232.544,684.591L232.993,685.243L233.083,686.41L232.319,687.056L231.933,688.576L230.326,688.663L229.437,688.848L229.975,689.803L229.419,690.27L227.739,689.814L226.868,689L226.653,688.462L226.186,688.294L225.665,688.185L225.557,687.74L226.123,686.144L226.446,685.547L226.491,685.14L226.275,684.819L226.365,684.526L226.769,684.325L227.03,684.037L226.958,683.657L226.392,682.729L226.76,682.408L227.632,682.691L228.485,683.152L230.784,683.543L231.969,684.162ZM174.781,672.606L174.673,674.09L174.853,675.052L174.332,675.818L173.263,675.954L172.644,676.47L172.159,676.242L171.701,675.525L171.324,675.541L171.135,676.204L170.435,676.307L168.153,675.356L167.381,674.247L167.309,673.519L167.776,672.883L167.83,672.225L168.656,671.676L172.455,672.475L174.045,672.231ZM259.216,672.524L258.749,673.008L257.752,673.215L257.213,672.443L256.989,671.415L256.396,670.605L255.543,670.241L254.411,670.409L253.091,670.877L252.032,670.866L251.61,670.649L251.187,670.371L248.745,669.289L248.592,668.838L249.724,668.691L250.828,668.365L251.313,668.082L251.717,667.886L252.588,668.022L253.594,668.495L254.816,667.984L256.306,666.766L257.429,666.483L258.075,666.978L258.875,667.19L259.342,667.158L259.809,667.071L261.039,667.201L262.602,667.582L263.572,668.153L263.356,669.132L262.718,669.882L262.548,670.339L262.44,671.268L261.749,672.03L260.797,671.845L259.773,672.035ZM285.448,667.663L285.825,667.99L286.041,668.615L285.367,668.756L284.433,668.283L283.338,668.039L282.547,668.349L282.835,668.713L283.508,669.099L282.709,669.898L280.76,671.432L279.629,671.943L279.521,670.763L280.069,669.931L280.769,669.463L280.374,668.93L277.958,668.43L278.282,667.897L278.021,667.223L277.285,666.777L275.435,666.603L274.716,666.358L274.402,666.146L274.663,665.896L275.48,665.733L276.117,665.297L277.141,664.057L278.237,663.143L278.147,662.795L278.497,662.915L279.279,663.676L279.997,664.753L280.41,665.961L281.272,666.342L282.781,665.863L283.886,665.738L284.397,666.189L284.775,666.799ZM249.293,672.432L249.508,673.258L250.128,674.747L249.751,675.106L249.212,675.03L248.673,674.878L247.685,674.448L246.841,673.899L246.374,673.992L246.266,674.775L245.736,675.084L244.766,674.639L243.096,674.247L241.021,673.519L241.004,672.655L242.027,671.872L241.758,670.888L240.806,670.632L239.656,670.931L238.22,670.534L236.926,669.686L236.154,668.707L235.831,667.255L235.723,665.602L235.813,663.916L236.253,662.229L237.124,660.939L238.309,660.368L238.947,660.221L240.887,660.025L242.153,660.444L243.339,661.25L244.65,662.8L245.673,665.379L245.979,667.495L246.329,668.474L246.931,669.289L247.272,670.431ZM249.131,662.577L248.592,662.539L248.107,662.044L248.511,661.25L249.023,660.466L249.787,658.779L251.34,656.721L253.522,655.513L255.812,654.968L257.186,655.208L257.707,656.008L257.797,656.89L257.222,657.483L257.312,657.805L258.336,658.431L259.18,659.378L259.916,660.45L260.015,661.266L259.207,661.402L256.944,660.705L256.001,660.939L255.444,661.761L252.535,663.121L251.511,664.498L251.187,665.934L250.595,666.353L249.876,665.515L249.894,664.133L249.661,662.969ZM202.585,598.058L204.677,598.797L204.902,601.647L202.738,603.649L201.552,603.201L202.253,602.408L202.603,601.636L202.315,601.1L199.235,599.404L198.777,599.158L195.517,599.689L194.071,600.4L192.437,600.662L191.126,600.214L190.452,599.338L191.045,598.632L192.796,598.518L195.041,597.697L195.436,597.193L195.796,596.821L195.903,596.252L197.286,595.825L197.78,594.987L197.834,594.002L196.972,592.819L196.604,591.489L197.807,590.865L199.72,591.325L201.687,592.321L203.088,593.734L202.944,594.528L201.983,594.654L200.304,595.77L200.097,596.394L200.16,597.188L200.313,597.817L201.022,598.042ZM190.838,573.42L191.045,572.762L190.291,572.532L187.462,572.055L186.833,571.506L185.863,571.413L185.387,571.314L184.911,570.881L184.282,570.563L183.69,569.833L182.504,567.062L183.178,565.975L184.579,565.503L185.872,565.981L186.905,566.672L187.839,566.348L188.899,565.789L189.581,566.129L189.815,566.722L190.353,566.7L191.036,566.502L191.314,567.38L190.551,568.154L189.536,568.22L189.105,568.719L189.105,569.438L190.317,570.689L191.341,571.155L192.491,571.232L193.146,572.164L193.479,573.36L194.035,574.117L194.233,575.148L193.802,576.453L193.371,576.804L193.083,576.382L191.799,576.086L191.26,575.395L190.82,574.6Z" data-name="South Jeolla"/>
    <path class="region" d="M491.942,561.779L491.416,561.305L490.415,562.779L487.047,568.726L485.521,568.832L485.415,566.095L485.52,563.516L484.785,563.409L483.828,565.547L483.048,568.78L480.313,568.465L473.047,568.582L472.63,566.105L471.891,564.791L470.888,568.533L469.782,569.062L467.213,567.903L466.011,565.646L464.691,565.492L462.993,566.804L462.993,560.903L462.535,560.414L461.592,560.804L460.793,562.045L460.73,564.131L458.979,562.759L457.614,560.782L456.105,559.557L453.887,560.447L454.372,558.541L453.456,555.833L453.887,554.828L452.782,551.278L452.136,550.904L450.87,552.059L449.496,554.224L449.468,555.669L450.87,558.596L451.651,562.166L452.109,563.417L453.052,565.042L454.893,567.528L455.162,568.779L454.641,570.574L455.512,570.694L456.877,571.287L457.659,571.495L456.689,572.143L455.719,572.4L453.483,572.406L452.306,572.131L451.974,571.418L451.92,570.519L451.552,569.652L450.492,568.533L449.738,567.918L443.784,565.816L442.113,565.712L438.458,566.409L437.462,566.903L437.533,567.852L438.809,569.652L436.761,570.063L432.98,571.972L428.643,573.157L428.077,574.863L427.861,576.716L426.685,577.933L426.685,578.849L437.695,572.993L439.563,572.867L439.94,575.236L440.605,576.974L440.829,578.52L439.94,580.313L438.53,581.102L436.375,581.464L434.22,581.365L432.792,580.773L432.046,582.089L432.558,582.724L433.555,583.305L434.3,584.456L434.408,585.157L434.444,586.165L434.3,588.97L433.474,594.478L434.489,595.447L435.459,595.124L436.222,594.051L436.564,592.726L438.054,594.478L436.519,597.237L433.735,600.87L431.265,601.614L427.949,601.392L428.006,599.335L430.133,599.306L431.04,599.141L431.588,598.239L424.736,597.467L423.308,596.898L421.728,594.697L421.503,593.591L422.635,592.88L425.176,591.894L422.671,586.855L420.866,588.641L419.052,592.146L416.492,592.31L414.157,589.167L412.936,588.384L410.43,588.126L409.326,588.794L408.715,590.421L408.49,592.485L408.544,594.478L406.209,594.084L401.081,594.314L399.061,593.186L398.827,592.458L398.8,590.487L398.684,589.967L398.172,589.835L396.941,590.06L395.352,589.693L392.756,589.468L391.841,588.97L391.329,587.891L391.382,586.834L391.661,585.82L391.841,584.916L391.661,574.934L391.841,573.327L392.164,572.581L392.73,571.594L393.215,570.299L393.349,568.648L391.625,570.716L390.206,573.13L388.455,574.94L385.806,575.17L387.826,579.94L386.452,580.872L383.462,580.806L380.606,582.615L379.447,579.381L378.747,578.06L377.508,577.1L377.184,581.442L375.999,584.872L373.691,586.943L370.745,587.206L369.569,586.74L368.518,586.472L367.647,586.571L366.973,587.206L365.33,585.847L364.177,585.534L363.898,584.936L363.909,582.434L362.427,578.78L355.549,571.282L354.363,568.795L353.405,565.944L350.941,563.358L348.227,561.378L346.733,558.693L346.265,551.517L345.159,548.058L342.889,545.38L343.482,542.433L345.798,540.064L345.957,536.728L346.687,533.107L351.295,527.589L351.957,523.874L350.371,522.814L349.242,520.256L349.436,516.791L348.216,513.598L348.01,511.885L347.6,510.389L344.771,509.191L344.885,505.778L346.425,502.631L347.372,498.403L348.66,494.31L350.371,491.106L351.763,488.06L352.082,483.882L353.314,480.321L355.834,478.083L358.218,475.588L360.294,471.092L361.377,470.393L362.883,470.555L365.597,469.721L371.083,466.803L372.155,463.943L376.193,459.604L377.082,462.63L379.318,463.932L380.344,464.706L381.359,465.572L381.451,466.648L381.895,467.749L382.785,468.153L383.686,468.455L387.028,468.716L388.476,469.932L390.267,471.142L393.438,471.388L396.563,471.36L399.414,472.323L401.512,474.608L402.984,477.405L405.424,479.133L406.04,480.405L406.417,481.575L408.116,482.628L409.587,484.359L409.519,487.565L408.196,490.629L409.93,496.902L416.739,497.189L420.069,496.719L423.251,497.252L426.239,498.69L429.068,500.815L432.204,501.446L438.112,498.41L441.134,499.023L443.86,495.134L446.404,493.162L447.316,500.668L450.099,504.068L453.555,506.259L457.558,505.807L461.687,505.067L465.291,506.171L468.735,507.986L472.852,508.105L476.445,505.253L478.03,504.664L479.627,504.454L481.144,503.139L482.41,501.502L486.402,499.862L490.645,500.917L493.895,502.449L496.986,501.415L497.454,506.809L494.694,512.379L496.347,515.727L503.145,516.77L506.008,518.947L510.775,524.406L516.455,527.537L518.987,529.513L519.728,533.268L522.135,535.651L525.271,536.763L525.716,537.147L525.196,538.945L525.006,541.438L524.353,542.731L523.608,543.839L524.231,545.682L524.267,546.441L523.018,548.975L521.263,552.715L519.3,555.082L518.24,557.292L518.04,557.696L517.823,557.211L515.599,554.94L513.604,552.361L511.083,550.32L509.11,547.576L508.494,544.612L506.327,543.225L503.533,543.117L500.932,544.161L498.834,545.684L497.26,547.639L496.108,555.616L494.534,558.016L492.857,560.102ZM393.376,604.656L393.942,606.182L393.619,607.527L393.008,608.954L392.685,610.709L392.99,613.48L392.9,615.064L392.272,615.753L391.391,616.25L392.325,618.976L391.867,620.342L390.17,620.658L388.554,619.686L386.811,618.921L384.764,619.872L382.968,620.112L381.872,617.512L380.633,612.086L378.819,611.102L377.373,612.102L376.394,614.365L376.026,617.168L375.352,618.348L373.79,618.397L372.137,617.829L371.131,617.168L370.449,615.96L370.287,614.966L370.26,613.791L370.018,612.086L366.973,602.161L366.569,599.765L366.866,597.401L368.132,594.982L368.976,594.363L369.838,594.205L370.503,593.756L371.024,590.783L371.67,589.934L373.439,588.548L374.894,587.841L376.565,588.356L378.028,589.665L378.882,591.347L378.729,593.115L377.759,594.807L375.28,597.401L375.729,598.331L376.241,600.684L376.861,601.91L377.804,602.566L380.166,603.36L381.495,605.739L383.632,605.361L386.344,604.295L388.904,603.748L392.622,604.371ZM468.301,597.401L468.175,598.994L467.681,600.684L466.711,601.625L465.211,600.991L465.822,602.796L467.25,605.837L467.546,607.92L466.702,608.254L464.771,607.587L462.697,606.493L461.44,605.585L461.098,607.461L460.757,608.478L458.844,610.709L458.225,612.452L459.536,613.458L461.35,614.217L462.266,615.25L460.541,616.769L452.549,619.249L450.142,619.413L453.914,616.671L452.351,615.928L451.759,614.737L451.848,613.135L452.405,611.168L448.984,612.922L447.969,612.217L447.475,610.67L447.538,609.118L448.229,608.413L450.977,607.855L451.759,606.373L451.812,604.278L452.405,601.91L450.896,600.991L449.765,602.391L445.804,604.147L444.053,605.585L442.796,603.627L441.224,601.899L439.94,599.962L439.599,597.401L440.308,595.858L441.763,594.435L443.443,593.34L444.879,592.726L449.011,591.872L450.142,591.894L451.956,592.661L453.402,593.608L454.884,594.336L456.931,594.478L456.931,593.641L454.884,592.294L453.716,590.284L453.195,587.989L453.079,585.837L454.534,586.017L462.266,581.612L460.946,579.14L461.565,576.683L463.263,575.324L465.211,576.091L465.696,577.21L465.732,578.515L465.014,583.513L465.068,584.302L465.58,585.886L466.253,587.151L466.738,588.455L466.711,590.224L466.271,591.828L464.529,596.4L466.765,595.611L467.834,594.872L468.193,595.135ZM393.726,600.608L394.175,600.963L394.786,601.888L393.619,602.183L388.625,600.865L385.895,601.746L384.297,601.554L382.653,600.553L381.684,598.638L382.438,596.564L383.947,594.61L384.907,592.77L385.913,591.473L387.665,590.996L388.23,592.485L387.458,594.659L387.072,596.142L387.18,597.379L387.763,597.779L388.41,596.317L389.703,594.265L390.763,594.084L391.086,595.026L391.652,595.562L392.2,595.869L392.451,597.483L393.08,599.716ZM478.7,576.815L478.215,579.6L477.488,580.598L476.922,580.79L476.653,580.203L476.114,577.846L475.279,576.969L474.982,576.278L475.117,575.324L474.74,574.205L474.156,573.141L474.461,572.17L475.629,571.506L476.895,571.374L478,571.704L478.754,573.404ZM418.207,628.214L418.486,628.514L418.324,629.229L417.264,630.539L416.788,630.855L416.079,630.959L415.037,630.724L414.175,630.85L412.999,631.434L412.424,631.974L411.768,632.116L411.661,631.614L412.047,630.757L411.939,630.064L411.454,629.579L411.041,629.486L410.556,629.115L410.601,628.443L410.897,627.832L410.942,627.101L411.382,626.675L412.128,626.49L415.621,628.356L415.63,629.186L416.133,629.24ZM428.274,603.968L429.326,603.535L431.026,603.108L432.953,602.984L434.031,604.042L434.322,605.768L433.737,606.847L434.139,607.492L433.66,608.301L432.549,607.853L432.111,608.119L432.143,608.458L433.049,608.635L433.957,609.386L433.512,610.196L432.385,611.61L430.559,611.631L429.758,610.608L429.326,609.557L428.402,609.521L428.619,608.64L428.316,607.759L426.892,607.548L426.384,607.138L427.44,606.298L427.64,605.275L426.573,604.43L424.584,603.742L423.324,604.14L422.576,604.102L422.339,603.218L423.227,602.241L424.522,601.912L426.223,602.604L427.522,603.599ZM412.172,601.811L413.825,603.66L414.445,604.705L414.004,605.427L412.819,605.427L412.262,605.722L412.343,606.674L412.011,607.084L410.969,606.789L410.322,606.471L409.11,605.624L408.41,604.574L408.544,603.846L409.299,602.61L410.78,601.489Z" data-name="South Gyeongsang"/>
    <path class="region" d="M518.04,557.696L517.496,558.794L515.791,558.76L514.531,558.704L512.979,558.959L511.838,558.893L510.639,559.433L509.32,559.588L509.214,561.484L510.095,562.799L510.241,564.374L509.675,566.169L507.204,567.325L505.205,565.583L503.995,564.581L503.094,563.471L500.202,566.575L498.884,569.047L498.462,571.679L497.567,572.309L497.038,570.985L495.721,569.556L495.83,570.83L496.094,573.571L495.252,573.569L494.88,572.662L494.406,572.447L493.276,573.207L492.201,573.881L491.464,572.973L490.571,569.936L490.94,567.2L491.783,563.726L491.942,561.779L492.857,560.102L494.534,558.016L496.108,555.616L497.26,547.639L498.834,545.684L500.932,544.161L503.533,543.117L506.327,543.225L508.494,544.612L509.11,547.576L511.083,550.32L513.604,552.361L515.599,554.94L517.823,557.211Z" data-name="Busan"/>
    <path class="region" d="M546.707,497.17L546.877,497.372L547.614,498.679L547.197,501.635L546.961,505.138L546.216,510.401L545.093,512.629L543.279,515.078L541.609,515.982L540.881,513.595L540.235,510.484L538.807,508.15L537.271,507.753L536.355,510.401L537.864,510.748L538.762,511.89L539.193,513.561L539.292,515.486L538.807,517.305L537.675,517.73L536.409,517.846L535.529,518.728L535.691,519.698L535.832,522.216L536.282,524.814L535.253,526.479L534.318,528.143L535.239,529.443L535.977,530.187L535.825,532.026L533.555,532.771L531.419,534.06L528.352,537.103L525.757,537.006L525.716,537.147L525.271,536.763L522.135,535.651L519.728,533.268L518.987,529.513L516.455,527.537L510.775,524.406L506.008,518.947L503.145,516.77L496.347,515.727L494.694,512.379L497.454,506.809L496.986,501.415L499.643,499.262L502.483,497.603L504.183,497.561L504.878,496.228L503.818,494.474L503.213,492.573L506.931,489.685L511.596,488.053L515.417,487.474L519.158,488.26L523.047,489.938L524.062,491.608L524.119,493.636L524.393,495.446L525.762,496.432L527.609,496.912L537.874,495.057L546.61,497.196Z" data-name="Ulsan"/>
    <path class="region" d="M542.686,359.765L542.713,359.995L543.279,365.397L544.788,371.032L545.39,376.708L544.707,388.42L544.033,390.936L540.621,395.068L539.292,397.393L538.708,400.102L538.241,416.642L538.618,418.884L539.292,420.13L540.028,420.631L540.621,421.32L541.259,425.969L542.076,429.527L542.965,430.149L543.558,430.916L543.144,433.05L542.255,434.25L541.106,434.806L540.019,435.161L538.18,436.681L538.078,438.549L540.404,440.709L542.075,442.585L543.838,444.741L546.076,445.126L548.91,442.902L555.924,435.217L557.273,432.954L559.094,434.406L559.498,436.75L560.279,439.188L560.854,441.903L559.132,444.602L555.153,452.522L554.85,456.069L553.668,465.393L550.808,473.487L550.967,478.547L548.039,487.333L545.882,491.601L544.941,493.735L545.86,496.158L546.707,497.17L546.61,497.196L537.874,495.057L527.609,496.912L525.762,496.432L524.393,495.446L524.119,493.636L524.062,491.608L523.047,489.938L519.158,488.26L515.417,487.474L511.596,488.053L506.931,489.685L503.213,492.573L503.818,494.474L504.878,496.228L504.183,497.561L502.483,497.603L499.643,499.262L496.986,501.415L493.895,502.449L490.645,500.917L486.402,499.862L482.41,501.502L481.144,503.139L479.627,504.454L478.03,504.664L476.445,505.253L472.852,508.105L468.735,507.986L465.291,506.171L461.687,505.067L457.558,505.807L453.555,506.259L450.099,504.068L447.316,500.668L446.404,493.162L443.86,495.134L441.134,499.023L438.112,498.41L432.204,501.446L429.068,500.815L426.239,498.69L423.251,497.252L420.069,496.719L416.739,497.189L409.93,496.902L408.196,490.629L409.519,487.565L409.587,484.359L408.116,482.628L406.417,481.575L406.04,480.405L405.424,479.133L402.984,477.405L401.512,474.608L399.414,472.323L396.563,471.36L393.438,471.388L390.267,471.142L388.476,469.932L387.028,468.716L383.686,468.455L382.785,468.153L381.895,467.749L381.451,466.648L381.359,465.572L380.344,464.706L379.318,463.932L377.082,462.63L376.193,459.604L376.706,450.925L372.19,443.206L374.87,441.891L377.641,440.96L379.352,437.617L380.276,434.115L381.131,432.591L382.192,431.303L382.431,429.055L382.409,427.184L381.793,423.512L384.462,421.224L387.108,421.715L389.457,421.856L388.203,414.727L385.705,412.882L380.071,414.235L377.926,413.217L374.801,410.605L372.133,409.732L367.696,410.778L367.034,404.275L369.475,402.162L371.06,399.006L369.84,396.843L369.144,394.482L369.806,391.188L370.251,383.716L371.345,380.578L373.353,378.618L367.947,370.76L363.624,370.025L362.381,366.884L364.012,366.124L365.632,365.83L367.228,364.118L369.715,360.776L370.33,359.373L370.262,358.091L370.547,356.456L373.98,354.121L377.835,352.291L380.23,348.714L384.439,350.541L392.263,351.786L390.655,348.692L388.545,345.968L389.286,343.143L390.666,340.133L392,337.869L393.768,339.04L395.969,338.852L397.783,336.406L399.665,335.192L401.444,336.342L404.854,337.542L408.036,337.791L408.812,335.52L409.359,333.372L410.511,331.552L411.948,330.131L413.385,331.745L415.222,333.055L417.822,335.309L419.464,338.638L423.399,339.934L432.637,336.046L434.268,330.637L432.809,329.29L432.033,327.94L433.436,325.367L434.588,322.772L437.017,319.296L440.427,316.874L441.397,315.116L442.765,313.974L445.046,313.257L446.883,311.473L449.688,309.124L452.232,306.425L453.304,305.74L454.615,306.247L456.11,305.383L457.455,303.851L460.284,305.354L463.01,306.5L466.306,307.211L469.123,307.475L469.773,304.522L470.127,301.347L469.397,297.946L471.404,295.494L474.404,294.086L477.415,294.322L478.966,297.049L481.098,297.538L483.014,298.492L482.741,300.897L482.992,303.319L486.299,302.018L489.436,299.571L490.782,300.132L491.717,301.386L492.926,301.536L494.386,300.94L498.708,301.668L502.78,303.54L505.665,302.808L508.665,301.222L512.44,302.104L515.884,304.183L516.957,307.368L514.345,309.324L511.129,308.05L509.064,308.824L507.182,310.252L506.384,313.678L506.874,318.151L509.144,321.588L512.782,323.314L513.592,326.251L514.63,328.788L517.162,329.874L519.534,331.225L527.621,331.83L527.176,334.96L528.122,335.861L528.989,336.887L527.803,340.354L526.332,344.012L526.628,347.867L527.598,351.27L527.94,354.342L526.72,357.615L534.361,360.439L537.897,358.872L541.581,359.718ZM467.503,464.812L469.226,463.032L469.819,460.878L469.762,458.573L469.533,456.412L468.347,455.401L467.458,454.063L467.424,450.619L467.96,449.71L468.017,448.632L466.614,446.187L462.189,442.938L456.36,443.318L449.335,444.263L444.145,448.576L444.841,454.789L442.948,456.873L441.762,459.552L442.811,459.724L443.78,460.083L443.575,461.441L443.108,462.729L441.328,463.021L439.674,463.032L438.146,465.167L438.808,467.682L440.519,468.35L442.127,469.932L443.438,472.471L445.389,474.052L446.746,474.931L447.761,475.771L448.605,475.05L450.179,472.295L451.753,471.05L455.323,471.409L461.698,473.072L464.162,471.578L464.492,470.302L464.504,469.422L465.542,466.701L465.69,465.55L465.633,464.657L466.671,464.565ZM706.114,231.231L708,232.658L707.865,236.191L706.644,240.124L705.36,242.738L703.258,243.796L700.447,243.247L697.717,241.607L695.903,239.417L695.328,236.582L696.262,234.464L698.247,233.14L702.172,232.471L704.794,231.503Z" data-name="North Gyeongsang"/>
    <path class="region" d="M269.391,782.938L270.226,784.656L269.714,785.242L268.646,785.554L267.882,786.469L267.936,787.239L268.637,788.46L268.637,789.176L268.259,789.886L267.317,791.129L267.128,791.516L265.137,793.82L261.388,796.817L260.225,799.315L258.565,802.231L258.486,803.4L257.752,805.118L255.031,805.435L253.98,805.988L251.082,805.733L246.85,809.079L235.697,811.13L231.966,814.304L227.399,815.321L222.508,814.831L216.919,815.874L212.273,814.476L201.786,814.627L198.515,816.158L196.568,819.611L194.79,819.981L193.012,819.128L190.499,815.055L187.153,813.916L183.905,810.511L182.774,806.365L184.741,800.991L186.599,797.658L187.749,796.486L191.584,794.211L194.859,788.512L197.871,787.74L199.263,784.729L204.427,782.945L215.685,779.714L218.505,777.282L229.264,776.153L236.588,772.957L238.342,773.453L247.26,772.013L252.43,771.583L255.852,772.16L257.16,774.128L258.785,775.399L264.11,777.516L265.727,779.159L266.814,783.121L267.882,784.672L268.394,784.069L269.095,783.493Z" data-name="Jeju"/>
    <path class="region" d="M281.335,212.106L285.304,212.431L287.197,215.694L287.927,220.13L289.079,223.23L289.148,226.63L288.133,230.573L291.155,230.536L293.744,229.601L295.991,229.569L296.835,231.594L296.538,233.669L294.999,234.449L293.322,235.563L293.356,238.079L294.246,239.078L292.353,241.665L291.303,243.483L288.441,245.185L285.293,245.918L282.054,247.548L280.788,244.639L278.028,245.279L275.29,246.133L273.351,247.247L271.333,247.577L266.6,247.415L263.36,243.152L260.167,242.19L257.966,240.738L257.384,236.746L255.194,233.622L252.582,230.421L254.236,226.864L257.327,227.062L260.863,229.22L263.486,228.328L265.824,226.904L266.006,224.507L266.645,222.297L271.595,221.822L274.138,218.582L275.69,215.291L277.891,212.931Z" data-name="Seoul"/>
    <path class="region" d="M310.28,412.352L307.994,404.91L307.422,394.978L305.422,391.074L299.51,381.796L304.564,380.412L311.73,378.451L314.251,378.664L314,379.713L314.388,380.71L315.175,381.575L316.133,382.039L316.771,383.577L316.349,385.98L319.68,386.93L323.238,386.14L324.527,384.265L326.067,384.648L325.873,386.211L327.23,386.909L327.424,389.357L328.564,393.005L328.028,396.224L326.58,398.553L324.983,404.473L322.098,406.804L320.512,407.341L315.71,410.935Z" data-name="Daejeon"/>
    <path class="region" d="M286.847,349.459L302.549,355.724L300.393,360.418L300.599,362.73L299.219,366.675L298.705,370.895L306.826,369.262L315.22,369.795L315.14,371.289L314.581,372.573L314.365,373.62L314.73,374.5L314.81,375.195L314.935,375.89L314.718,377.316L314.251,378.664L311.73,378.451L304.564,380.412L299.51,381.796L291.988,383.854L281.94,381.88L282.943,379.004L284.62,377.398L284.275,356.584Z" data-name="Sejong"/>
    <path class="region" d="M329.705,306.889L332.476,304.954L337.746,295.14L338.282,293.964L338.92,292.885L339.776,292.195L340.665,291.572L341.555,290.235L342.331,288.762L353.987,285.564L365.723,283.958L364.776,290.639L368.129,289.845L371.505,290.081L372.44,290.664L373.387,291.108L374.242,290.36L374.984,289.456L377.219,287.921L376.615,281.191L378.702,278.629L384.325,276.724L388.522,281.174L388.522,284.147L389.89,286.068L393.552,285.181L397.201,283.145L399.414,281.435L402.048,281.989L404.227,280.844L406.782,278.868L412.941,281.066L419.236,282.061L421.221,282.659L419.943,285.575L416.761,287.843L414.868,290.782L416.077,292.148L417.64,293.013L418.62,293.035L419.624,292.563L422.977,291.44L428.235,290.84L429.33,292.048L429.136,294.021L431.326,296.298L432.124,298.117L434.132,297.967L436.504,297.545L439.161,296.695L441.796,296.677L444.419,298.667L447.327,300.554L450.202,301.122L453.007,301.447L455.243,302.418L457.455,303.851L456.11,305.383L454.615,306.247L453.304,305.74L452.232,306.425L449.688,309.124L446.883,311.473L445.046,313.257L442.765,313.974L441.397,315.116L440.427,316.874L437.017,319.296L434.588,322.772L433.436,325.367L432.033,327.94L432.809,329.29L434.268,330.637L432.637,336.046L423.399,339.934L419.464,338.638L417.822,335.309L415.222,333.055L413.385,331.745L411.948,330.131L410.511,331.552L409.359,333.372L408.812,335.52L408.036,337.791L404.854,337.542L401.444,336.342L399.665,335.192L397.783,336.406L395.969,338.852L393.768,339.04L392,337.869L390.666,340.133L389.286,343.143L388.545,345.968L390.655,348.692L392.263,351.786L384.439,350.541L380.23,348.714L377.835,352.291L373.98,354.121L370.547,356.456L370.262,358.091L370.33,359.373L369.715,360.776L367.228,364.118L365.632,365.83L364.012,366.124L362.381,366.884L363.624,370.025L367.947,370.76L373.353,378.618L371.345,380.578L370.251,383.716L369.806,391.188L369.144,394.482L369.84,396.843L371.06,399.006L369.475,402.162L367.034,404.275L367.696,410.778L372.133,409.732L374.801,410.605L377.926,413.217L380.071,414.235L385.705,412.882L388.203,414.727L389.457,421.856L387.108,421.715L384.462,421.224L381.793,423.512L382.409,427.184L382.431,429.055L382.192,431.303L381.131,432.591L380.276,434.115L379.352,437.617L377.641,440.96L374.87,441.891L372.19,443.206L370.775,444.693L369.361,445.99L367.741,445.112L366.133,443.576L362.062,445.415L358.515,447.59L356.747,447.082L355.72,445.796L350.782,444.171L349.128,442.208L347.258,441.105L346.539,442.067L345.649,442.286L344.6,441.323L343.654,440.184L341.144,436.281L338.898,432.277L337.951,427.594L338.099,422.87L336.959,418.804L333.571,416.727L330.298,415.663L326.739,416.402L326.443,412.511L326.637,408.728L327.96,403.436L330.458,398.935L331.461,396.641L332.579,394.602L334.392,393.232L334.814,390.855L333.4,390.384L331.872,389.693L330.013,391.05L328.564,393.005L327.424,389.357L327.23,386.909L325.873,386.211L326.067,384.648L324.527,384.265L323.238,386.14L319.68,386.93L316.349,385.98L316.771,383.577L316.133,382.039L315.175,381.575L314.388,380.71L314,379.713L314.251,378.664L314.718,377.316L314.935,375.89L314.81,375.195L314.73,374.5L314.365,373.62L314.581,372.573L315.14,371.289L315.22,369.795L306.826,369.262L298.705,370.895L299.219,366.675L300.599,362.73L300.393,360.418L302.549,355.724L305.606,351.288L307.932,347.241L308.856,346.249L309.905,346.413L310.932,346.125L311.491,345.072L311.639,343.887L311.981,342.382L312.517,340.93L312.791,339.375L312.551,337.812L311.821,336.427L310.909,335.591L311.023,332.756L309.575,331.738L307.681,327.919L306.199,327.056L304.898,325.688L304.032,323.642L308.982,322.187L313.669,319.927L317.342,318.693L318.334,314.63L320.136,312.675L322.964,311.451L324.299,309.72L325.211,307.425L326.922,305.604L329.078,306.058Z" data-name="North Chungcheong"/>
    <path class="region" d="M268.059,545.411L273.751,547.548L275.986,553.726L271.641,559.526L264.832,558.438L258.821,554.828L255.799,548.184L258.182,545.928L262.14,546.979L265.037,546.319Z" data-name="Gwangju"/>
    <path class="region" d="M462.189,442.938L466.614,446.187L468.017,448.632L467.96,449.71L467.424,450.619L467.458,454.063L468.347,455.401L469.533,456.412L469.762,458.573L469.819,460.878L469.226,463.032L467.503,464.812L466.671,464.565L465.633,464.657L465.69,465.55L465.542,466.701L464.504,469.422L464.492,470.302L464.162,471.578L461.698,473.072L455.323,471.409L451.753,471.05L450.179,472.295L448.605,475.05L447.761,475.771L446.746,474.931L445.389,474.052L443.438,472.471L442.127,469.932L440.519,468.35L438.808,467.682L438.146,465.167L439.674,463.032L441.328,463.021L443.108,462.729L443.575,461.441L443.78,460.083L442.811,459.724L441.762,459.552L442.948,456.873L444.841,454.789L444.145,448.576L449.335,444.263L456.36,443.318Z" data-name="Daegu"/>
  </g>
</svg>